<svg xmlns="http://www.w3.org/2000/svg" viewBox="0 0 64 64" id="bone">
  <defs>
    <linearGradient id="a" x1="17.49" x2="41.67" y1="17.49" y2="41.67" gradientUnits="userSpaceOnUse">
      <stop offset="0" stop-color="#d6d6d6"></stop>
      <stop offset="1" stop-color="#a1a1a1"></stop>
    </linearGradient>
    <linearGradient id="b" x1="32" x2="32" y1="3" y2="61" gradientUnits="userSpaceOnUse">
      <stop offset="0" stop-color="#000406"></stop>
      <stop offset="1" stop-color="#001521"></stop>
    </linearGradient>
  </defs>
  <path fill="url(#a)" d="M58.54,15.92a8.4,8.4,0,0,0-8.36-2.1A8.4,8.4,0,1,0,36.83,17.9L17.9,36.83a8.4,8.4,0,1,0-4.08,13.35A8.4,8.4,0,1,0,27.17,46.1L46.1,27.17A8.4,8.4,0,1,0,58.54,15.92Z"></path>
  <path fill="url(#b)" d="M50.18,13.82A8.4,8.4,0,1,0,36.83,17.9L17.9,36.83a8.4,8.4,0,1,0-4.08,13.35A8.4,8.4,0,1,0,27.17,46.1L46.1,27.17a8.4,8.4,0,1,0,4.08-13.35Zm7,12.57a6.4,6.4,0,0,1-10-1.28,1,1,0,0,0-1.56-.2L24.91,45.53a1,1,0,0,0,.2,1.56,6.4,6.4,0,1,1-7.77,1,1,1,0,0,0-1.42-1.42,6.4,6.4,0,1,1,1-7.77,1,1,0,0,0,1.56.2L39.09,18.47a1,1,0,0,0-.2-1.56,6.4,6.4,0,1,1,7.77-1,1,1,0,0,0,1.42,1.42,6.4,6.4,0,1,1,9.05,9.05Z"></path>
</svg>
